<svg width="691" height="2012" viewBox="0 0 691 2012" fill="none" xmlns="http://www.w3.org/2000/svg">
<path fill-rule="evenodd" clip-rule="evenodd" d="M84.9753 1910.94L84.9529 1910.91C56.7381 1878.35 35.0255 1842.53 19.8261 1803.45L19.8082 1803.4L19.7927 1803.35C6.76979 1764.29 0.257812 1724.13 0.257812 1682.89C0.257812 1639.47 7.85545 1596.07 23.0358 1552.7C38.2201 1507.15 59.9217 1466.99 88.1507 1432.25L88.1591 1432.24C118.568 1395.31 155.496 1365.99 198.925 1344.28C242.427 1322.52 292.402 1311.68 348.8 1311.68C403.043 1311.68 450.869 1322.53 492.22 1344.29C535.603 1365.98 571.438 1394.2 599.689 1428.96C630.069 1461.52 652.865 1498.43 668.064 1539.68C683.251 1578.74 690.864 1616.76 690.864 1653.74C690.864 1701.51 681.094 1747.12 661.557 1790.55C644.19 1833.95 619.224 1871.95 586.665 1904.51C556.252 1937.09 519.337 1963.14 475.948 1982.67C434.662 2002.22 391.193 2012 345.561 2012C287.062 2012 236.044 2002.25 192.559 1982.69C149.155 1965.32 113.284 1941.42 84.9987 1910.96L84.9753 1910.94ZM193.342 1980.85C236.524 2000.28 287.264 2010 345.561 2010C390.903 2010 434.086 2000.28 475.109 1980.85C518.292 1961.42 554.998 1935.51 585.226 1903.12C617.613 1870.74 642.443 1832.95 659.716 1789.77C679.148 1746.58 688.864 1701.24 688.864 1653.74C688.864 1617.04 681.307 1579.25 666.193 1540.39C651.079 1499.36 628.408 1462.66 598.18 1430.27C570.112 1395.72 534.486 1367.66 491.303 1346.06C450.279 1324.47 402.778 1313.68 348.8 1313.68C292.662 1313.68 243.002 1324.47 199.819 1346.06C156.636 1367.66 119.931 1396.8 89.703 1433.51C61.6342 1468.06 40.0428 1508 24.9288 1553.34C9.8148 1596.52 2.25781 1639.71 2.25781 1682.89C2.25781 1723.91 8.73523 1763.86 21.6901 1802.72C36.8041 1841.59 58.3955 1877.21 86.4643 1909.6C114.533 1939.83 150.159 1963.58 193.342 1980.85ZM192.56 674.254L192.521 674.237C149.13 654.711 113.274 629.734 84.9987 599.284L84.9753 599.258L84.9529 599.232C56.7381 566.677 35.0255 530.854 19.8261 491.77L19.8082 491.724L19.7927 491.678C6.76979 452.609 0.257812 412.451 0.257812 371.213C0.257812 327.797 7.85556 284.396 23.0361 241.018C38.2204 195.47 59.9219 155.314 88.1507 120.571L88.1591 120.561C118.568 83.636 155.496 54.3127 198.925 32.5982C242.427 10.847 292.402 0 348.8 0C403.041 0 450.866 10.8484 492.216 32.6077C535.601 54.303 571.437 82.5236 599.69 117.279C630.069 149.842 652.865 186.753 668.064 228.002C683.251 267.061 690.864 305.085 690.864 342.065C690.864 389.834 681.094 435.443 661.557 478.873C644.19 522.276 619.224 560.268 586.665 592.835C556.252 625.413 519.337 651.462 475.948 670.99C434.662 690.543 391.193 700.323 345.561 700.323C287.072 700.323 236.069 691.658 192.599 674.27L192.56 674.254ZM585.226 591.445C617.613 559.058 642.443 521.273 659.716 478.09C679.148 434.908 688.864 389.566 688.864 342.065C688.864 305.359 681.307 267.574 666.193 228.71C651.079 187.686 628.408 150.981 598.18 118.594C570.112 84.0473 534.486 55.9784 491.303 34.3871C450.279 12.7957 402.778 2 348.8 2C292.662 2 243.002 12.7957 199.819 34.3871C156.636 55.9784 119.931 85.1268 89.703 121.832C61.6342 156.378 40.0428 196.323 24.9288 241.664C9.8148 284.847 2.25781 328.03 2.25781 371.213C2.25781 412.237 8.73523 452.181 21.6901 491.045C36.8041 529.91 58.3955 565.535 86.4643 597.923C114.533 628.151 150.159 652.981 193.342 672.413C236.524 689.686 287.264 698.323 345.561 698.323C390.903 698.323 434.086 688.606 475.109 669.174C518.292 649.742 554.998 623.832 585.226 591.445Z" fill="white"/>
</svg>
