<svg width="1112" height="1800" viewBox="0 0 1112 1800" fill="none" xmlns="http://www.w3.org/2000/svg">
<path fill-rule="evenodd" clip-rule="evenodd" d="M100.448 434.919L100.787 433.623C135.703 300.308 200.809 195.449 296.153 119.168C391.492 39.7242 502.745 0 629.825 0C775.918 0 892.034 47.6578 977.942 143.097C1066.99 235.344 1111.44 357.752 1111.44 510.108C1111.44 611.702 1089.22 719.581 1044.83 833.728C1003.62 944.687 944.977 1057.2 868.933 1171.27C796.05 1285.34 708.916 1396.24 607.538 1503.95C506.15 1611.68 395.257 1709.9 274.861 1798.61L273.489 1799.62L0.0791016 1531.01L1.66421 1529.59C125.01 1418.89 216.653 1308.26 276.666 1197.71L276.676 1197.69L276.687 1197.67C339.874 1087.1 371.397 981.383 371.397 880.505C371.397 719.904 281.68 571.638 101.518 435.726L100.448 434.919ZM867.259 1170.17C943.238 1056.21 1001.81 943.821 1042.96 833.019C1087.28 719.05 1109.44 611.414 1109.44 510.108C1109.44 358.151 1065.12 236.268 976.479 144.46C891.003 49.4868 775.451 2 629.825 2C503.194 2 392.392 41.5723 297.418 120.717C202.444 196.696 137.546 301.167 102.722 434.13C283.172 570.258 373.397 719.05 373.397 880.505C373.397 981.81 341.739 1087.86 278.423 1198.67C218.516 1309.02 127.205 1419.38 4.49076 1529.73C3.99437 1530.18 3.49745 1530.63 3.00003 1531.07L273.675 1797C393.974 1708.36 504.777 1610.22 606.082 1502.58C707.387 1394.95 794.446 1284.14 867.259 1170.17Z" fill="white"/>
</svg>
