<svg width="90" height="90" viewBox="0 0 90 90" fill="none" xmlns="http://www.w3.org/2000/svg">
<rect x="0.5" y="0.5" width="89" height="89" rx="9.5" stroke="white"/>
<path d="M37.5614 66.936C38.0894 64.92 39.0734 63.336 40.5134 62.184C41.9534 60.984 43.6334 60.384 45.5534 60.384C47.7614 60.384 49.5134 61.104 50.8094 62.544C52.1534 63.936 52.8254 65.784 52.8254 68.088C52.8254 69.624 52.4894 71.256 51.8174 72.984C51.1934 74.664 50.3054 76.368 49.1534 78.096C48.0494 79.824 46.7294 81.504 45.1934 83.136C43.6574 84.768 41.9774 86.256 40.1534 87.6L36.0494 83.568C37.9214 81.888 39.3134 80.208 40.2254 78.528C41.1854 76.848 41.6654 75.24 41.6654 73.704C41.6654 71.256 40.2974 69 37.5614 66.936Z" fill="white"/>
</svg>
