<svg width="630" height="2241" viewBox="0 0 630 2241" fill="none" xmlns="http://www.w3.org/2000/svg">
<path fill-rule="evenodd" clip-rule="evenodd" d="M629.922 48.2769L493.895 1494.6H155.052V0.790039L629.922 48.2769ZM72.4993 2154.5L72.4769 2154.48C48.3348 2126.62 29.7551 2095.97 16.7487 2062.52L16.7309 2062.48L16.7153 2062.43C5.57212 2029 0 1994.64 0 1959.35C0 1922.2 6.50114 1885.07 19.4885 1847.96C32.4798 1808.99 51.0485 1774.63 75.2048 1744.9L75.2132 1744.89C101.236 1713.29 132.838 1688.19 170.001 1669.61C207.238 1650.99 250.007 1641.71 298.259 1641.71C344.668 1641.71 385.6 1650.99 420.997 1669.62C458.117 1688.18 488.785 1712.33 512.965 1742.07C538.958 1769.94 558.464 1801.52 571.471 1836.82C584.465 1870.24 590.981 1902.78 590.981 1934.43C590.981 1975.31 582.621 2014.34 565.903 2051.51C551.042 2088.64 529.679 2121.15 501.819 2149.02C475.792 2176.9 444.204 2199.19 407.08 2215.9C371.747 2232.63 334.544 2241 295.491 2241C245.452 2241 201.796 2232.66 164.578 2215.92C127.438 2201.06 96.7362 2180.6 72.5227 2154.53L72.4993 2154.5ZM165.358 2214.08C202.275 2230.69 245.653 2239 295.491 2239C334.254 2239 371.171 2230.69 406.242 2214.08C443.159 2197.47 474.538 2175.32 500.38 2147.63C528.068 2119.94 549.295 2087.64 564.062 2050.72C580.675 2013.81 588.981 1975.04 588.981 1934.43C588.981 1903.05 582.521 1870.75 569.6 1837.53C556.679 1802.46 537.297 1771.08 511.455 1743.39C487.459 1713.85 457.003 1689.86 420.086 1671.4C385.015 1652.94 344.406 1643.71 298.259 1643.71C250.267 1643.71 207.813 1652.94 170.896 1671.4C133.979 1689.86 102.599 1714.78 76.757 1746.16C52.761 1775.69 34.3024 1809.84 21.3815 1848.6C8.46049 1885.52 2 1922.44 2 1959.35C2 1994.42 7.53756 2028.57 18.6127 2061.8C31.5336 2095.02 49.9922 2125.48 73.9883 2153.17C97.9844 2179.01 128.441 2199.31 165.358 2214.08ZM627.744 50.0692L157.052 3.00001V1492.6H492.074L627.744 50.0692Z" fill="white"/>
</svg>
