<svg width="90" height="90" viewBox="0 0 90 90" fill="none" xmlns="http://www.w3.org/2000/svg">
<rect x="0.5" y="0.5" width="89" height="89" rx="9.5" stroke="white"/>
<path d="M53.4971 15.672L49.9691 53.184H41.2571V14.448L53.4971 15.672ZM44.9291 60.312C46.1291 60.312 47.1851 60.552 48.0971 61.032C49.0571 61.512 49.8491 62.136 50.4731 62.904C51.1451 63.624 51.6491 64.44 51.9851 65.352C52.3211 66.216 52.4891 67.056 52.4891 67.872C52.4891 68.928 52.2731 69.936 51.8411 70.896C51.4571 71.856 50.9051 72.696 50.1851 73.416C49.5131 74.136 48.6971 74.712 47.7371 75.144C46.8251 75.576 45.8651 75.792 44.8571 75.792C43.5611 75.792 42.4331 75.576 41.4731 75.144C40.5131 74.76 39.7211 74.232 39.0971 73.56C38.4731 72.84 37.9931 72.048 37.6571 71.184C37.3691 70.32 37.2251 69.432 37.2251 68.52C37.2251 67.56 37.3931 66.6 37.7291 65.64C38.0651 64.632 38.5451 63.744 39.1691 62.976C39.8411 62.16 40.6571 61.512 41.6171 61.032C42.5771 60.552 43.6811 60.312 44.9291 60.312Z" fill="white"/>
</svg>
