<svg width="1365" height="1384" viewBox="0 0 1365 1384" fill="none" xmlns="http://www.w3.org/2000/svg">
<path fill-rule="evenodd" clip-rule="evenodd" d="M167.395 1184.36L167.372 1184.33C111.598 1119.98 68.6865 1049.18 38.6476 971.934L38.6298 971.888L38.6143 971.842C12.8718 894.614 0 815.238 0 733.721C0 647.906 15.0176 562.106 45.0377 476.33C75.0616 386.263 117.962 306.889 173.75 238.227L173.758 238.217C233.846 165.253 306.813 107.311 392.64 64.3972C478.541 21.4467 577.275 0 688.791 0C796.03 0 890.493 21.448 972.122 64.4063C1057.91 107.301 1128.72 163.081 1184.53 231.755C1244.59 296.117 1289.65 369.067 1319.68 450.595C1349.71 527.812 1364.74 602.935 1364.74 675.953C1364.74 770.361 1345.43 860.489 1306.82 946.318C1272.49 1032.12 1223.15 1107.21 1158.79 1171.57C1098.7 1235.95 1025.74 1287.44 939.956 1326.05C858.391 1364.68 772.523 1384 682.372 1384C566.636 1384 465.801 1364.71 379.917 1326.07C294.113 1291.75 223.264 1244.53 167.418 1184.38L167.395 1184.36ZM380.698 1324.23C466.279 1362.74 566.837 1382 682.372 1382C772.233 1382 857.814 1362.74 939.116 1324.23C1024.7 1285.72 1097.44 1234.37 1157.35 1170.19C1221.53 1106 1270.74 1031.12 1304.98 945.535C1343.49 859.953 1362.74 770.093 1362.74 675.953C1362.74 603.209 1347.77 528.326 1317.81 451.302C1287.86 370 1242.93 297.256 1183.02 233.07C1127.4 164.605 1056.79 108.977 971.209 66.1861C889.907 23.3954 795.767 2 688.791 2C577.535 2 479.116 23.3954 393.535 66.1861C307.953 108.977 235.209 166.744 175.302 239.488C119.674 307.953 76.8837 387.116 46.9302 476.977C16.9767 562.558 2 648.14 2 733.721C2 815.023 14.8372 894.186 40.5116 971.209C70.4651 1048.23 113.256 1118.84 168.884 1183.02C224.512 1242.93 295.116 1290 380.698 1324.23Z" fill="white"/>
</svg>
