<svg width="90" height="90" viewBox="0 0 90 90" fill="none" xmlns="http://www.w3.org/2000/svg">
<rect x="0.5" y="0.5" width="89" height="89" rx="9.5" stroke="white"/>
<path d="M45.5937 60.312C46.7937 60.312 47.8497 60.552 48.7617 61.032C49.7217 61.512 50.5137 62.136 51.1377 62.904C51.8097 63.624 52.3137 64.44 52.6497 65.352C52.9857 66.216 53.1537 67.056 53.1537 67.872C53.1537 68.928 52.9377 69.936 52.5057 70.896C52.1217 71.856 51.5697 72.696 50.8497 73.416C50.1777 74.136 49.3617 74.712 48.4017 75.144C47.4897 75.576 46.5297 75.792 45.5217 75.792C44.2257 75.792 43.0977 75.576 42.1377 75.144C41.1777 74.76 40.3857 74.232 39.7617 73.56C39.1377 72.84 38.6577 72.048 38.3217 71.184C38.0337 70.32 37.8897 69.432 37.8897 68.52C37.8897 67.56 38.0577 66.6 38.3937 65.64C38.7297 64.632 39.2097 63.744 39.8337 62.976C40.5057 62.16 41.3217 61.512 42.2817 61.032C43.2417 60.552 44.3457 60.312 45.5937 60.312Z" fill="white"/>
</svg>
