<svg width="603" height="2016" viewBox="0 0 603 2016" fill="none" xmlns="http://www.w3.org/2000/svg">
<path fill-rule="evenodd" clip-rule="evenodd" d="M54.6348 1277.62L54.9743 1276.32C73.8769 1204.15 109.139 1147.33 160.81 1105.99C212.477 1062.94 272.779 1041.41 341.63 1041.41C420.757 1041.41 483.739 1067.23 530.342 1119C578.633 1169.03 602.7 1235.39 602.7 1317.87C602.7 1372.88 590.668 1431.26 566.66 1493C544.37 1553.01 512.662 1613.85 471.555 1675.51C432.154 1737.18 385.054 1797.12 330.261 1855.34C275.456 1913.57 215.515 1966.66 150.437 2014.61L149.065 2015.62L0.12207 1869.29L1.70718 1867.87C68.279 1808.12 117.705 1748.45 150.058 1688.85L150.069 1688.83L150.079 1688.81C184.152 1629.18 201.117 1572.24 201.117 1517.95C201.117 1431.59 152.889 1351.74 55.7046 1278.43L54.6348 1277.62ZM469.882 1674.41C510.923 1612.85 542.559 1552.15 564.789 1492.29C588.73 1430.73 600.7 1372.59 600.7 1317.87C600.7 1235.79 576.759 1169.95 528.878 1120.36C482.708 1069.06 420.291 1043.41 341.63 1043.41C273.228 1043.41 213.377 1064.79 162.076 1107.54C110.775 1148.58 75.7194 1205.01 56.9091 1276.83C154.381 1350.36 203.117 1430.73 203.117 1517.95C203.117 1572.67 186.017 1629.95 151.816 1689.8C119.568 1749.21 70.4735 1808.61 4.53311 1868.02C4.03735 1868.46 3.54065 1868.91 3.04299 1869.36L149.251 2013C214.232 1965.12 274.083 1912.11 328.805 1853.97C383.526 1795.83 430.552 1735.97 469.882 1674.41ZM207.465 534.807L207.426 534.789C173.018 519.306 144.572 499.493 122.135 475.33L122.111 475.305L122.089 475.279C99.7126 449.46 82.4911 421.048 70.4354 390.048L70.4175 390.002L70.402 389.955C60.0737 358.97 54.9091 327.121 54.9091 294.416C54.9091 259.982 60.9349 225.563 72.9717 191.167C85.0123 155.051 102.223 123.203 124.613 95.6457L124.622 95.6354C148.743 66.3455 178.036 43.0851 212.483 25.8616C247.003 8.60151 286.649 0 331.37 0C374.383 0 412.327 8.6028 445.145 25.8708C479.547 43.0751 507.974 65.4575 530.388 93.0276C554.479 118.853 572.559 148.128 584.614 180.843C596.659 211.819 602.7 241.985 602.7 271.33C602.7 309.219 594.951 345.397 579.455 379.845C565.681 414.266 545.88 444.399 520.057 470.229C495.932 496.07 466.653 516.73 432.246 532.216C399.493 547.728 365.006 555.486 328.805 555.486C282.441 555.486 241.993 548.618 207.504 534.823L207.465 534.807ZM431.407 530.4C465.607 515.01 494.678 494.49 518.618 468.839C544.269 443.189 563.934 413.263 577.614 379.063C593.005 344.862 600.7 308.951 600.7 271.33C600.7 242.26 594.715 212.334 582.745 181.554C570.774 149.063 552.819 119.992 528.878 94.3419C506.648 66.9813 478.432 44.7508 444.232 27.6505C411.741 10.5502 374.12 2 331.37 2C286.909 2 247.578 10.5502 213.377 27.6505C179.177 44.7508 150.106 67.8363 126.165 96.9069C103.935 124.267 86.8347 155.903 74.8644 191.814C62.8942 226.014 56.9091 260.215 56.9091 294.416C56.9091 326.906 62.0392 358.542 72.2994 389.323C84.2696 420.103 101.37 448.319 123.6 473.969C145.831 497.91 174.046 517.575 208.247 532.966C242.448 546.646 282.634 553.486 328.805 553.486C364.715 553.486 398.916 545.791 431.407 530.4Z" fill="white"/>
</svg>
