<svg width="90" height="90" viewBox="0 0 90 90" fill="none" xmlns="http://www.w3.org/2000/svg">
<rect x="0.5" y="0.5" width="89" height="89" rx="9.5" stroke="white"/>
<path d="M37.7693 66.936C38.2973 64.92 39.2813 63.336 40.7213 62.184C42.1613 60.984 43.8413 60.384 45.7613 60.384C47.9693 60.384 49.7213 61.104 51.0173 62.544C52.3613 63.936 53.0333 65.784 53.0333 68.088C53.0333 69.624 52.6973 71.256 52.0253 72.984C51.4013 74.664 50.5133 76.368 49.3613 78.096C48.2573 79.824 46.9373 81.504 45.4013 83.136C43.8653 84.768 42.1853 86.256 40.3613 87.6L36.2573 83.568C38.1293 81.888 39.5213 80.208 40.4333 78.528C41.3933 76.848 41.8733 75.24 41.8733 73.704C41.8733 71.256 40.5053 69 37.7693 66.936ZM45.4733 31.152C46.6733 31.152 47.7293 31.392 48.6413 31.872C49.6013 32.352 50.3933 32.976 51.0173 33.744C51.6893 34.464 52.1933 35.28 52.5293 36.192C52.8653 37.056 53.0333 37.896 53.0333 38.712C53.0333 39.768 52.8173 40.776 52.3853 41.736C52.0013 42.696 51.4493 43.536 50.7293 44.256C50.0573 44.976 49.2413 45.552 48.2813 45.984C47.3693 46.416 46.4093 46.632 45.4013 46.632C44.1053 46.632 42.9773 46.44 42.0173 46.056C41.0573 45.624 40.2653 45.072 39.6413 44.4C39.0173 43.68 38.5373 42.888 38.2013 42.024C37.9133 41.16 37.7693 40.272 37.7693 39.36C37.7693 38.4 37.9373 37.44 38.2733 36.48C38.6093 35.472 39.0893 34.584 39.7133 33.816C40.3853 33 41.2013 32.352 42.1613 31.872C43.1213 31.392 44.2253 31.152 45.4733 31.152Z" fill="white"/>
</svg>
