<svg width="90" height="90" viewBox="0 0 90 90" fill="none" xmlns="http://www.w3.org/2000/svg">
<rect x="0.5" y="0.5" width="89" height="89" rx="9.5" stroke="white"/>
<path d="M45.5821 60.312C46.7821 60.312 47.8381 60.552 48.7501 61.032C49.7101 61.512 50.5021 62.136 51.1261 62.904C51.7981 63.624 52.3021 64.44 52.6381 65.352C52.9741 66.216 53.1421 67.056 53.1421 67.872C53.1421 68.928 52.9261 69.936 52.4941 70.896C52.1101 71.856 51.5581 72.696 50.8381 73.416C50.1661 74.136 49.3501 74.712 48.3901 75.144C47.4781 75.576 46.5181 75.792 45.5101 75.792C44.2141 75.792 43.0861 75.576 42.1261 75.144C41.1661 74.76 40.3741 74.232 39.7501 73.56C39.1261 72.84 38.6461 72.048 38.3101 71.184C38.0221 70.32 37.8781 69.432 37.8781 68.52C37.8781 67.56 38.0461 66.6 38.3821 65.64C38.7181 64.632 39.1981 63.744 39.8221 62.976C40.4941 62.16 41.3101 61.512 42.2701 61.032C43.2301 60.552 44.3341 60.312 45.5821 60.312ZM45.5821 31.152C46.7821 31.152 47.8381 31.392 48.7501 31.872C49.7101 32.352 50.5021 32.976 51.1261 33.744C51.7981 34.464 52.3021 35.28 52.6381 36.192C52.9741 37.056 53.1421 37.896 53.1421 38.712C53.1421 39.768 52.9261 40.776 52.4941 41.736C52.1101 42.696 51.5581 43.536 50.8381 44.256C50.1661 44.976 49.3501 45.552 48.3901 45.984C47.4781 46.416 46.5181 46.632 45.5101 46.632C44.2141 46.632 43.0861 46.44 42.1261 46.056C41.1661 45.624 40.3741 45.072 39.7501 44.4C39.1261 43.68 38.6461 42.888 38.3101 42.024C38.0221 41.16 37.8781 40.272 37.8781 39.36C37.8781 38.4 38.0461 37.44 38.3821 36.48C38.7181 35.472 39.1981 34.584 39.8221 33.816C40.4941 33 41.3101 32.352 42.2701 31.872C43.2301 31.392 44.3341 31.152 45.5821 31.152Z" fill="white"/>
</svg>
