<svg width="1724" height="925" viewBox="0 0 1724 925" fill="none" xmlns="http://www.w3.org/2000/svg">
<path fill-rule="evenodd" clip-rule="evenodd" d="M1717.64 0V238.42C1721.47 315.028 1723.38 391.636 1723.38 468.244C1723.38 544.852 1721.47 621.46 1717.64 698.068V925H11.7725L11.5024 922.298C3.83419 845.617 0 768.934 0 692.25L1 462.5V441.858V232.75C1 156.1 4.83251 79.4502 12.4974 2.80099L12.6775 1H1713.64V0H1717.64ZM1714.64 697.994C1714.99 691.008 1715.32 684.023 1715.64 677.038C1718.8 607.44 1720.38 537.842 1720.38 468.244C1720.38 398.646 1718.8 329.048 1715.64 259.45C1715.32 252.465 1714.99 245.479 1714.64 238.494V3H14.4875C6.82917 79.5834 3 156.167 3 232.75V692.25C3 768.833 6.82917 845.417 14.4875 922H1714.64V697.994Z" fill="white"/>
</svg>
