<svg width="90" height="90" viewBox="0 0 90 90" fill="none" xmlns="http://www.w3.org/2000/svg">
<rect x="0.5" y="0.5" width="89" height="89" rx="9.5" stroke="white"/>
<path d="M36.5071 53.472C36.5071 51.696 36.7471 50.184 37.2271 48.936C37.7071 47.64 38.2831 46.488 38.9551 45.48C39.6751 44.472 40.4191 43.56 41.1871 42.744C42.0031 41.928 42.7471 41.112 43.4191 40.296C44.1391 39.48 44.7151 38.592 45.1471 37.632C45.6271 36.672 45.8671 35.544 45.8671 34.248C45.8671 32.904 45.6271 31.848 45.1471 31.08C44.6671 30.264 44.0671 29.64 43.3471 29.208C42.6271 28.776 41.8831 28.512 41.1151 28.416C40.3471 28.272 39.6751 28.2 39.0991 28.2C36.9391 28.2 35.1151 28.752 33.6271 29.856C32.1871 30.912 31.0111 32.136 30.0991 33.528C30.0031 32.472 29.9311 31.32 29.8831 30.072C29.8831 28.776 29.8831 27.432 29.8831 26.04C29.8831 24.744 29.8831 23.568 29.8831 22.512C29.9311 21.456 30.0031 20.304 30.0991 19.056C31.4431 17.616 33.2911 16.488 35.6431 15.672C38.0431 14.856 40.7071 14.448 43.6351 14.448C45.3151 14.448 47.1391 14.64 49.1071 15.024C51.0751 15.36 52.8991 16.08 54.5791 17.184C56.2591 18.24 57.6511 19.752 58.7551 21.72C59.9071 23.64 60.4831 26.184 60.4831 29.352C60.4831 31.704 60.1711 33.696 59.5471 35.328C58.9231 36.96 58.1311 38.4 57.1711 39.648C56.2591 40.848 55.2511 41.928 54.1471 42.888C53.0431 43.848 52.0111 44.832 51.0511 45.84C50.0911 46.848 49.2751 47.952 48.6031 49.152C47.9791 50.352 47.6431 51.792 47.5951 53.472H36.5071ZM42.5551 60.312C43.7551 60.312 44.8111 60.552 45.7231 61.032C46.6831 61.512 47.4751 62.136 48.0991 62.904C48.7711 63.624 49.2751 64.44 49.6111 65.352C49.9471 66.216 50.1151 67.056 50.1151 67.872C50.1151 68.928 49.8991 69.936 49.4671 70.896C49.0831 71.856 48.5311 72.696 47.8111 73.416C47.1391 74.136 46.3231 74.712 45.3631 75.144C44.4511 75.576 43.4911 75.792 42.4831 75.792C41.1871 75.792 40.0591 75.576 39.0991 75.144C38.1391 74.76 37.3471 74.232 36.7231 73.56C36.0991 72.84 35.6191 72.048 35.2831 71.184C34.9951 70.32 34.8511 69.432 34.8511 68.52C34.8511 67.56 35.0191 66.6 35.3551 65.64C35.6911 64.632 36.1711 63.744 36.7951 62.976C37.4671 62.16 38.2831 61.512 39.2431 61.032C40.2031 60.552 41.3071 60.312 42.5551 60.312Z" fill="white"/>
</svg>
