<svg width="1050" height="2098" viewBox="0 0 1050 2098" fill="none" xmlns="http://www.w3.org/2000/svg">
<path fill-rule="evenodd" clip-rule="evenodd" d="M226.842 1336.1V1334.1C226.842 1273.31 235.055 1221.44 251.548 1178.56C267.979 1134.19 287.707 1094.73 310.741 1060.18L310.759 1060.15L310.778 1060.13C335.402 1025.65 360.856 994.45 387.139 966.524L387.16 966.502L387.181 966.48C414.995 938.667 440.347 910.86 463.242 883.06L463.264 883.033L463.286 883.008C487.736 855.299 507.286 825.155 521.948 792.574L521.965 792.536L521.983 792.5C538.203 760.06 546.349 721.873 546.349 677.88C546.349 632.207 538.188 596.579 522.076 570.799L522.062 570.777L522.048 570.753C505.81 543.15 485.555 522.107 461.299 507.553C436.94 492.937 411.807 484.027 385.89 480.787L385.829 480.78L385.769 480.769C359.635 475.868 336.825 473.43 317.321 473.43C243.944 473.43 182.118 492.175 131.724 529.564L131.715 529.571C82.7389 565.486 42.7666 607.097 11.7757 654.399L8.63053 659.199L8.11094 653.484C4.8303 617.397 2.37058 578.038 0.73097 535.408L0.729492 535.369V277.222L0.731555 277.177C2.37116 241.106 4.83031 201.76 8.10862 159.142L8.16238 158.444L8.64062 157.931C54.7917 108.484 118.179 69.8258 198.694 41.8921L198.705 41.888C280.867 13.9532 372.025 0 472.159 0C529.65 0 592.036 6.56943 659.308 19.6944C726.745 31.2114 789.254 55.887 846.819 93.7126C904.471 129.955 952.196 181.819 990.016 249.228C1029.58 315.179 1049.27 402.407 1049.27 510.754C1049.27 591.205 1038.6 659.46 1017.19 715.461C995.828 771.33 968.702 820.658 935.803 863.428C904.592 904.493 870.092 941.458 832.302 974.319C794.662 1007.05 759.48 1040.6 726.755 1074.96C694.107 1109.24 666.358 1146.78 643.504 1187.58C622.382 1228.22 610.966 1277.05 609.334 1334.16L609.279 1336.1H226.842ZM641.744 1186.63C664.683 1145.67 692.537 1107.99 725.307 1073.58C758.077 1039.17 793.305 1005.58 830.99 972.81C868.676 940.04 903.084 903.174 934.215 862.211C966.985 819.61 994.021 770.455 1015.32 714.747C1036.62 659.038 1047.27 591.04 1047.27 510.754C1047.27 402.613 1027.61 315.772 988.286 250.232C950.6 183.054 903.084 131.441 845.737 95.3943C788.389 57.7089 726.126 33.1314 658.948 21.6619C591.769 8.55396 529.507 2 472.159 2C372.211 2 281.274 15.9272 199.349 43.7816C119.063 71.6361 55.9807 110.141 10.1027 159.296C6.82574 201.897 4.36799 241.221 2.72949 277.268V535.331C4.31967 576.676 6.6815 614.934 9.81496 650.105C9.91017 651.174 10.0061 652.24 10.1027 653.303C10.6885 652.409 11.2774 651.517 11.8695 650.627C42.7479 604.216 82.3022 563.326 130.532 527.958C181.326 490.272 243.589 471.43 317.321 471.43C336.983 471.43 359.922 473.887 386.138 478.803C412.354 482.08 437.751 491.091 462.328 505.838C486.906 520.584 507.387 541.885 523.772 569.739C540.157 595.955 548.349 632.002 548.349 677.88C548.349 722.12 540.157 760.624 523.772 793.394C509.025 826.164 489.363 856.477 464.786 884.331C441.847 912.185 416.45 940.04 388.596 967.894C362.38 995.749 336.983 1026.88 312.406 1061.29C289.467 1095.7 269.805 1135.02 253.42 1179.26C237.215 1221.39 229.024 1272.34 228.845 1332.1C228.843 1332.76 228.842 1333.43 228.842 1334.1H607.335C608.974 1276.75 620.443 1227.6 641.744 1186.63ZM234.727 2021.15L234.704 2021.12C213.258 1996.37 196.751 1969.14 185.196 1939.43L185.179 1939.38L185.163 1939.34C175.264 1909.64 170.314 1879.11 170.314 1847.77C170.314 1814.76 176.089 1781.78 187.625 1748.81C199.165 1714.2 215.66 1683.67 237.121 1657.26L237.129 1657.25C260.249 1629.18 288.326 1606.88 321.342 1590.37C354.432 1573.83 392.432 1565.58 435.293 1565.58C476.52 1565.58 512.891 1573.83 544.35 1590.38C577.321 1606.87 604.565 1628.32 626.048 1654.75C649.139 1679.5 666.468 1707.56 678.023 1738.92C689.566 1768.61 695.356 1797.52 695.356 1825.65C695.356 1861.96 687.929 1896.64 673.078 1929.66C659.876 1962.65 640.898 1991.53 616.147 2016.28C593.024 2041.05 564.961 2060.85 531.984 2075.7C500.59 2090.56 467.534 2098 432.835 2098C388.392 2098 349.609 2090.6 316.536 2075.72C283.546 2062.52 256.267 2044.34 234.75 2021.17L234.727 2021.15ZM317.321 2073.88C350.091 2088.63 388.596 2096 432.835 2096C467.244 2096 500.014 2088.63 531.145 2073.88C563.915 2059.13 591.769 2039.47 614.708 2014.89C639.286 1990.32 658.129 1961.64 671.237 1928.87C685.983 1896.1 693.356 1861.69 693.356 1825.65C693.356 1797.79 687.622 1769.12 676.152 1739.63C664.683 1708.5 647.478 1680.64 624.539 1656.06C603.239 1629.85 576.204 1608.55 543.434 1592.16C512.302 1575.78 476.255 1567.58 435.293 1567.58C392.692 1567.58 355.007 1575.78 322.237 1592.16C289.467 1608.55 261.612 1630.67 238.673 1658.52C217.373 1684.74 200.988 1715.05 189.518 1749.46C178.049 1782.23 172.314 1815 172.314 1847.77C172.314 1878.9 177.23 1909.21 187.06 1938.7C198.53 1968.2 214.915 1995.23 236.215 2019.81C257.516 2042.75 284.551 2060.77 317.321 2073.88Z" fill="white"/>
</svg>
